<?xml version="1.0" standalone="no"?><!DOCTYPE svg PUBLIC "-//W3C//DTD SVG 1.1//EN" "http://www.w3.org/Graphics/SVG/1.1/DTD/svg11.dtd"><svg t="1717555613712" class="icon" viewBox="0 0 1024 1024" version="1.1" xmlns="http://www.w3.org/2000/svg" p-id="1161" xmlns:xlink="http://www.w3.org/1999/xlink" width="200" height="200"><path d="M512.404 232.133c-79.237 0-143.695 63.297-143.695 141.075 0 77.762 64.458 140.99 143.695 140.99 79.233 0 143.657-63.228 143.657-140.99 0-77.783-64.424-141.075-143.657-141.075m0 219.6c-44.047 0-79.882-35.236-79.882-78.555 0-43.31 35.834-78.56 79.882-78.56 44.018 0 79.848 35.25 79.848 78.56 0 43.317-35.83 78.555-79.848 78.555m336.314-57.59c0-182.14-150.869-330.312-336.314-330.312-185.412 0-336.218 148.173-336.218 330.313 0 142.85 207.049 430.69 296.118 547.792 9.375 12.357 24.381 19.702 40.102 19.702 15.685 0 30.722-7.342 40.133-19.702 89.036-117.102 296.179-404.905 296.179-547.792M517.706 891.94l-5.302 7.05-5.306-7.05C338.961 668.527 234.433 477.767 234.433 394.144c0-150.56 124.673-273.052 277.971-273.052 153.262 0 277.94 122.493 277.94 273.052 0.031 83.654-104.432 274.383-272.638 497.797" p-id="1162" fill="#2c2c2c"></path></svg>