<svg t="1717556227609" class="icon" viewBox="0 0 1024 1024" version="1.1" xmlns="http://www.w3.org/2000/svg" p-id="1961" width="200" height="200"><path d="M501.76 1003.52C224.64 1003.52 0 778.88 0 501.76S224.64 0 501.76 0s501.76 224.64 501.76 501.76c-0.299 276.992-224.768 501.461-501.76 501.76z m0-940.437c-242.283 0-438.677 196.394-438.677 438.677S259.477 940.437 501.76 940.437 940.437 744.043 940.437 501.76C940.16 259.605 743.915 63.36 501.76 63.083z" p-id="1962" fill="#2c2c2c"></path><path d="M446.827 664.725a58.88 58.88 0 0 1-41.792-17.344L259.69 501.76a31.595 31.595 0 0 1 44.672-44.672l142.464 142.72 251.797-251.819a31.595 31.595 0 1 1 44.693 44.694L488.875 647.38a58.88 58.88 0 0 1-42.048 17.344z" p-id="1963" fill="#2c2c2c"></path></svg>