<svg t="1717556212429" class="icon" viewBox="0 0 1075 1024" version="1.1" xmlns="http://www.w3.org/2000/svg" p-id="1742" width="200" height="200"><path d="M517.3248 52.0704a42.6496 42.6496 0 0 1 53.3504 0l426.6496 341.2992a42.7008 42.7008 0 0 1 16.0256 33.3312v512c0 23.552-19.0976 42.6496-42.7008 42.6496h-256a42.6496 42.6496 0 0 1-42.6496-42.6496v-341.3504h-256v341.3504c0 23.552-19.0976 42.6496-42.6496 42.6496h-256a42.6496 42.6496 0 0 1-42.7008-42.6496v-512c0-12.9536 5.888-25.2416 16.0256-33.28l426.7008-341.3504zM160 447.232V896h170.6496v-341.3504c0-23.552 19.0976-42.6496 42.7008-42.6496h341.2992c23.552 0 42.7008 19.0976 42.7008 42.6496v341.3504h170.6496V447.1808l-384-307.2-384 307.2z" p-id="1743" fill="#2c2c2c"></path><path d="M544 682.7008c23.552 0 42.6496 19.0976 42.6496 42.6496v213.3504a42.6496 42.6496 0 0 1-85.2992 0v-213.3504c0-23.552 19.0976-42.6496 42.6496-42.6496z" p-id="1744" fill="#2c2c2c"></path></svg>